<?xml version="1.0" standalone="no"?>
<!DOCTYPE svg PUBLIC "-//W3C//DTD SVG 20010904//EN"
 "http://www.w3.org/TR/2001/REC-SVG-20010904/DTD/svg10.dtd">
<svg version="1.0" xmlns="http://www.w3.org/2000/svg"
 width="374.000000pt" height="340.000000pt" viewBox="0 0 374.000000 340.000000"
 preserveAspectRatio="xMidYMid meet">

<g transform="translate(0.000000,340.000000) scale(0.100000,-0.100000)"
fill="#000000" stroke="none">
<path d="M1285 3150 c-175 -26 -318 -104 -456 -246 -84 -87 -146 -185 -180
-284 -19 -55 -23 -88 -25 -211 l-1 -145 -37 -51 c-133 -186 -164 -441 -74
-617 30 -59 125 -148 190 -179 121 -57 108 -57 1043 -57 528 0 884 -4 922 -10
34 -6 84 -20 110 -31 l48 -21 37 44 c21 24 38 46 38 50 0 11 -85 53 -150 74
-51 17 -125 18 -980 24 -1049 6 -975 0 -1074 91 -93 85 -126 216 -92 363 49
206 239 405 459 479 59 20 87 22 539 25 442 3 477 4 492 21 25 27 172 629 159
650 -24 39 -43 41 -488 40 -236 -1 -452 -5 -480 -9z m821 -147 c-3 -10 -28
-111 -57 -225 l-51 -207 -452 -3 c-391 -3 -459 -6 -511 -21 -74 -21 -167 -66
-234 -112 l-51 -35 0 48 c0 155 132 366 294 472 36 23 103 55 148 71 l83 29
418 0 c394 0 418 -1 413 -17z"/>
<path d="M2719 3150 c-22 -13 -31 -38 -75 -210 -20 -80 -54 -209 -75 -288 -39
-148 -40 -182 -4 -196 28 -10 874 -7 895 4 23 12 25 18 110 357 76 304 77 313
24 333 -33 13 -854 13 -875 0z m764 -127 c2 -5 -21 -107 -52 -228 l-56 -220
-348 -3 c-329 -2 -348 -1 -343 15 10 36 116 434 116 439 0 7 679 4 683 -3z"/>
<path d="M855 2092 c-19 -26 -35 -53 -35 -59 0 -18 50 -41 137 -64 73 -18 117
-19 943 -19 580 0 886 -4 926 -11 183 -33 294 -167 294 -353 -1 -210 -160
-435 -385 -543 -125 -59 -161 -63 -657 -63 -496 0 -468 4 -487 -68 -6 -20 -42
-162 -81 -315 -67 -263 -70 -280 -55 -303 l15 -24 461 0 c516 0 540 2 685 70
116 53 189 106 275 198 89 95 131 163 173 279 29 82 31 97 31 220 0 119 2 134
22 160 34 47 88 163 109 233 26 92 24 244 -5 324 -31 87 -63 137 -125 193 -55
51 -134 94 -209 115 -30 8 -302 13 -962 17 l-920 6 -58 27 -57 27 -35 -47z
m2115 -1099 c0 -104 -70 -256 -165 -360 -97 -106 -242 -194 -367 -222 -24 -6
-224 -11 -443 -11 -382 -1 -400 -1 -398 17 2 10 27 110 56 223 l54 205 444 6
c494 6 495 6 644 78 44 21 98 53 120 70 22 17 43 31 48 31 4 0 7 -17 7 -37z"/>
<path d="M251 963 c-21 -17 -61 -158 -163 -565 -35 -139 -73 -128 451 -128
240 0 441 4 447 8 6 4 16 16 21 27 16 31 153 579 153 612 0 64 8 63 -462 63
-391 0 -428 -1 -447 -17z m761 -118 c3 -3 -20 -104 -51 -224 l-56 -218 -335
-6 c-184 -3 -338 -3 -342 1 -5 5 81 359 107 440 3 9 80 12 338 12 184 0 336
-2 339 -5z"/>
</g>
</svg>
